<mxfile host="app.diagrams.net" modified="2023-10-11T14:00:13.968Z" agent="Mozilla/5.0 (Windows NT 10.0; Win64; x64) AppleWebKit/537.36 (KHTML, like Gecko) Chrome/117.0.0.0 Safari/537.36" etag="r9rSoAhDuOfC3pT-eUJc" version="22.0.4" type="device">
  <diagram name="Page-1" id="y_y29vFUTgmgRB9buhkw">
    <mxGraphModel dx="683" dy="1526" grid="1" gridSize="10" guides="1" tooltips="1" connect="1" arrows="1" fold="1" page="1" pageScale="1" pageWidth="827" pageHeight="1169" math="0" shadow="0">
      <root>
        <mxCell id="0" />
        <mxCell id="1" parent="0" />
        <mxCell id="hI_YVGgWy3BwtjRXccb2-9" style="edgeStyle=orthogonalEdgeStyle;orthogonalLoop=1;jettySize=auto;html=1;exitX=1;exitY=0;exitDx=0;exitDy=0;entryX=1;entryY=1;entryDx=0;entryDy=0;curved=1;endArrow=circle;endFill=0;" parent="1" source="hI_YVGgWy3BwtjRXccb2-2" target="hI_YVGgWy3BwtjRXccb2-1" edge="1">
          <mxGeometry relative="1" as="geometry">
            <Array as="points">
              <mxPoint x="280" y="278" />
              <mxPoint x="280" y="182" />
            </Array>
          </mxGeometry>
        </mxCell>
        <mxCell id="hI_YVGgWy3BwtjRXccb2-13" style="edgeStyle=orthogonalEdgeStyle;orthogonalLoop=1;jettySize=auto;html=1;exitX=0;exitY=1;exitDx=0;exitDy=0;entryX=0;entryY=0;entryDx=0;entryDy=0;curved=1;endArrow=circle;endFill=0;" parent="1" source="hI_YVGgWy3BwtjRXccb2-3" target="hI_YVGgWy3BwtjRXccb2-4" edge="1">
          <mxGeometry relative="1" as="geometry">
            <Array as="points">
              <mxPoint x="460" y="182" />
              <mxPoint x="460" y="278" />
            </Array>
          </mxGeometry>
        </mxCell>
        <mxCell id="hI_YVGgWy3BwtjRXccb2-14" style="edgeStyle=orthogonalEdgeStyle;orthogonalLoop=1;jettySize=auto;html=1;exitX=1;exitY=0;exitDx=0;exitDy=0;entryX=1;entryY=1;entryDx=0;entryDy=0;curved=1;endArrow=circle;endFill=0;" parent="1" source="hI_YVGgWy3BwtjRXccb2-4" target="hI_YVGgWy3BwtjRXccb2-3" edge="1">
          <mxGeometry relative="1" as="geometry">
            <Array as="points">
              <mxPoint x="530" y="278" />
              <mxPoint x="530" y="182" />
            </Array>
          </mxGeometry>
        </mxCell>
        <mxCell id="hI_YVGgWy3BwtjRXccb2-4" value="RH - 4" style="ellipse;whiteSpace=wrap;html=1;aspect=fixed;fillColor=#ffe6cc;strokeColor=#d79b00;" parent="1" vertex="1">
          <mxGeometry x="470" y="270" width="50" height="50" as="geometry" />
        </mxCell>
        <mxCell id="8C_NeX-uaN8IGlu0EP30-3" style="edgeStyle=orthogonalEdgeStyle;orthogonalLoop=1;jettySize=auto;html=1;exitX=1;exitY=0;exitDx=0;exitDy=0;entryX=0;entryY=0;entryDx=0;entryDy=0;endArrow=circle;endFill=0;curved=1;" edge="1" parent="1" source="hI_YVGgWy3BwtjRXccb2-5" target="8C_NeX-uaN8IGlu0EP30-2">
          <mxGeometry relative="1" as="geometry">
            <Array as="points">
              <mxPoint x="343" y="50" />
              <mxPoint x="396" y="50" />
            </Array>
          </mxGeometry>
        </mxCell>
        <mxCell id="8C_NeX-uaN8IGlu0EP30-9" style="edgeStyle=orthogonalEdgeStyle;orthogonalLoop=1;jettySize=auto;html=1;exitX=0;exitY=1;exitDx=0;exitDy=0;entryX=0.5;entryY=0;entryDx=0;entryDy=0;endArrow=circle;endFill=0;curved=1;strokeColor=#009900;" edge="1" parent="1" source="hI_YVGgWy3BwtjRXccb2-5" target="hI_YVGgWy3BwtjRXccb2-1">
          <mxGeometry relative="1" as="geometry" />
        </mxCell>
        <mxCell id="8C_NeX-uaN8IGlu0EP30-10" style="edgeStyle=orthogonalEdgeStyle;orthogonalLoop=1;jettySize=auto;html=1;exitX=0.5;exitY=1;exitDx=0;exitDy=0;entryX=0;entryY=0;entryDx=0;entryDy=0;endArrow=circle;endFill=0;curved=1;strokeColor=#009900;" edge="1" parent="1" source="hI_YVGgWy3BwtjRXccb2-5" target="hI_YVGgWy3BwtjRXccb2-3">
          <mxGeometry relative="1" as="geometry">
            <Array as="points">
              <mxPoint x="325" y="130" />
              <mxPoint x="430" y="130" />
              <mxPoint x="430" y="120" />
              <mxPoint x="477" y="120" />
            </Array>
          </mxGeometry>
        </mxCell>
        <mxCell id="hI_YVGgWy3BwtjRXccb2-5" value="Gallop &lt;br&gt;- 5" style="ellipse;whiteSpace=wrap;html=1;aspect=fixed;fillColor=#FF6666;strokeColor=#b85450;" parent="1" vertex="1">
          <mxGeometry x="300" y="60" width="50" height="50" as="geometry" />
        </mxCell>
        <mxCell id="hI_YVGgWy3BwtjRXccb2-8" style="edgeStyle=orthogonalEdgeStyle;rounded=0;orthogonalLoop=1;jettySize=auto;html=1;exitX=1;exitY=0;exitDx=0;exitDy=0;entryX=0.833;entryY=1.033;entryDx=0;entryDy=0;entryPerimeter=0;endArrow=oval;endFill=0;strokeColor=none;" parent="1" source="hI_YVGgWy3BwtjRXccb2-2" target="hI_YVGgWy3BwtjRXccb2-1" edge="1">
          <mxGeometry relative="1" as="geometry" />
        </mxCell>
        <mxCell id="hI_YVGgWy3BwtjRXccb2-7" style="edgeStyle=orthogonalEdgeStyle;orthogonalLoop=1;jettySize=auto;html=1;exitX=0;exitY=1;exitDx=0;exitDy=0;entryX=0;entryY=0;entryDx=0;entryDy=0;endArrow=circle;endFill=0;curved=1;shadow=0;" parent="1" source="hI_YVGgWy3BwtjRXccb2-1" target="hI_YVGgWy3BwtjRXccb2-2" edge="1">
          <mxGeometry relative="1" as="geometry">
            <Array as="points">
              <mxPoint x="210" y="183" />
              <mxPoint x="210" y="277" />
            </Array>
          </mxGeometry>
        </mxCell>
        <mxCell id="hI_YVGgWy3BwtjRXccb2-3" value="RF - 3" style="ellipse;whiteSpace=wrap;html=1;aspect=fixed;fillColor=#d5e8d4;strokeColor=#82b366;" parent="1" vertex="1">
          <mxGeometry x="470" y="140" width="50" height="50" as="geometry" />
        </mxCell>
        <mxCell id="hI_YVGgWy3BwtjRXccb2-1" value="LF - 1" style="ellipse;whiteSpace=wrap;html=1;aspect=fixed;fillColor=#dae8fc;strokeColor=#6c8ebf;" parent="1" vertex="1">
          <mxGeometry x="220" y="140" width="50" height="50" as="geometry" />
        </mxCell>
        <mxCell id="hI_YVGgWy3BwtjRXccb2-2" value="LH - 2" style="ellipse;whiteSpace=wrap;html=1;aspect=fixed;fillColor=#e1d5e7;strokeColor=#9673a6;" parent="1" vertex="1">
          <mxGeometry x="220" y="270" width="50" height="50" as="geometry" />
        </mxCell>
        <mxCell id="hI_YVGgWy3BwtjRXccb2-19" value="" style="endArrow=none;html=1;rounded=0;startArrow=halfCircle;startFill=0;startSize=50;exitX=0.5;exitY=0;exitDx=0;exitDy=0;" parent="1" edge="1">
          <mxGeometry width="50" height="50" relative="1" as="geometry">
            <mxPoint x="374.86" y="50" as="sourcePoint" />
            <mxPoint x="375" y="-20" as="targetPoint" />
          </mxGeometry>
        </mxCell>
        <mxCell id="hI_YVGgWy3BwtjRXccb2-20" value="NMD" style="text;html=1;align=center;verticalAlign=middle;resizable=0;points=[];autosize=1;strokeColor=none;fillColor=none;" parent="1" vertex="1">
          <mxGeometry x="350" y="-50" width="50" height="30" as="geometry" />
        </mxCell>
        <mxCell id="hI_YVGgWy3BwtjRXccb2-21" value="" style="endArrow=none;html=1;rounded=0;startArrow=halfCircle;startFill=0;startSize=50;exitX=0.5;exitY=0;exitDx=0;exitDy=0;" parent="1" edge="1">
          <mxGeometry width="50" height="50" relative="1" as="geometry">
            <mxPoint x="374.66" y="420" as="sourcePoint" />
            <mxPoint x="375" y="490" as="targetPoint" />
          </mxGeometry>
        </mxCell>
        <mxCell id="hI_YVGgWy3BwtjRXccb2-22" value="NMD" style="text;html=1;align=center;verticalAlign=middle;resizable=0;points=[];autosize=1;strokeColor=none;fillColor=none;" parent="1" vertex="1">
          <mxGeometry x="350" y="490" width="50" height="30" as="geometry" />
        </mxCell>
        <mxCell id="8C_NeX-uaN8IGlu0EP30-4" style="edgeStyle=orthogonalEdgeStyle;orthogonalLoop=1;jettySize=auto;html=1;exitX=0;exitY=1;exitDx=0;exitDy=0;entryX=1;entryY=1;entryDx=0;entryDy=0;curved=1;endArrow=circle;endFill=0;" edge="1" parent="1" source="8C_NeX-uaN8IGlu0EP30-2" target="hI_YVGgWy3BwtjRXccb2-5">
          <mxGeometry relative="1" as="geometry">
            <Array as="points">
              <mxPoint x="396" y="120" />
              <mxPoint x="343" y="120" />
            </Array>
          </mxGeometry>
        </mxCell>
        <mxCell id="8C_NeX-uaN8IGlu0EP30-11" style="edgeStyle=orthogonalEdgeStyle;orthogonalLoop=1;jettySize=auto;html=1;exitX=0;exitY=1;exitDx=0;exitDy=0;entryX=1;entryY=0.5;entryDx=0;entryDy=0;curved=1;endArrow=circle;endFill=0;strokeColor=#009900;" edge="1" parent="1" source="8C_NeX-uaN8IGlu0EP30-2" target="hI_YVGgWy3BwtjRXccb2-2">
          <mxGeometry relative="1" as="geometry">
            <Array as="points">
              <mxPoint x="396" y="295" />
            </Array>
          </mxGeometry>
        </mxCell>
        <mxCell id="8C_NeX-uaN8IGlu0EP30-12" style="edgeStyle=orthogonalEdgeStyle;orthogonalLoop=1;jettySize=auto;html=1;exitX=0.5;exitY=1;exitDx=0;exitDy=0;entryX=0;entryY=0.5;entryDx=0;entryDy=0;curved=1;endArrow=circle;endFill=0;strokeColor=#009900;" edge="1" parent="1" source="8C_NeX-uaN8IGlu0EP30-2" target="hI_YVGgWy3BwtjRXccb2-4">
          <mxGeometry relative="1" as="geometry" />
        </mxCell>
        <mxCell id="8C_NeX-uaN8IGlu0EP30-2" value="Gallop &lt;br&gt;- 6" style="ellipse;whiteSpace=wrap;html=1;aspect=fixed;fillColor=#f8cecc;strokeColor=#b85450;" vertex="1" parent="1">
          <mxGeometry x="389" y="60" width="50" height="50" as="geometry" />
        </mxCell>
        <mxCell id="8C_NeX-uaN8IGlu0EP30-5" style="edgeStyle=orthogonalEdgeStyle;orthogonalLoop=1;jettySize=auto;html=1;exitX=1;exitY=0;exitDx=0;exitDy=0;entryX=0;entryY=0;entryDx=0;entryDy=0;endArrow=circle;endFill=0;curved=1;" edge="1" parent="1" source="8C_NeX-uaN8IGlu0EP30-6" target="8C_NeX-uaN8IGlu0EP30-8">
          <mxGeometry relative="1" as="geometry">
            <Array as="points">
              <mxPoint x="343" y="340" />
              <mxPoint x="396" y="340" />
            </Array>
          </mxGeometry>
        </mxCell>
        <mxCell id="8C_NeX-uaN8IGlu0EP30-13" style="edgeStyle=orthogonalEdgeStyle;orthogonalLoop=1;jettySize=auto;html=1;exitX=0;exitY=0;exitDx=0;exitDy=0;entryX=0.5;entryY=1;entryDx=0;entryDy=0;curved=1;endArrow=circle;endFill=0;strokeColor=#004C99;" edge="1" parent="1" source="8C_NeX-uaN8IGlu0EP30-6" target="hI_YVGgWy3BwtjRXccb2-2">
          <mxGeometry relative="1" as="geometry" />
        </mxCell>
        <mxCell id="8C_NeX-uaN8IGlu0EP30-14" style="edgeStyle=orthogonalEdgeStyle;orthogonalLoop=1;jettySize=auto;html=1;exitX=0.5;exitY=0;exitDx=0;exitDy=0;entryX=0;entryY=0.5;entryDx=0;entryDy=0;curved=1;endArrow=circle;endFill=0;strokeColor=#004C99;" edge="1" parent="1" source="8C_NeX-uaN8IGlu0EP30-6" target="hI_YVGgWy3BwtjRXccb2-3">
          <mxGeometry relative="1" as="geometry" />
        </mxCell>
        <mxCell id="8C_NeX-uaN8IGlu0EP30-6" value="Trot - 7" style="ellipse;whiteSpace=wrap;html=1;aspect=fixed;fillColor=#FF6666;strokeColor=#b85450;" vertex="1" parent="1">
          <mxGeometry x="300" y="350" width="50" height="50" as="geometry" />
        </mxCell>
        <mxCell id="8C_NeX-uaN8IGlu0EP30-7" style="edgeStyle=orthogonalEdgeStyle;orthogonalLoop=1;jettySize=auto;html=1;exitX=0;exitY=1;exitDx=0;exitDy=0;entryX=1;entryY=1;entryDx=0;entryDy=0;curved=1;endArrow=circle;endFill=0;" edge="1" parent="1" source="8C_NeX-uaN8IGlu0EP30-8" target="8C_NeX-uaN8IGlu0EP30-6">
          <mxGeometry relative="1" as="geometry">
            <Array as="points">
              <mxPoint x="396" y="410" />
              <mxPoint x="343" y="410" />
            </Array>
          </mxGeometry>
        </mxCell>
        <mxCell id="8C_NeX-uaN8IGlu0EP30-15" style="edgeStyle=orthogonalEdgeStyle;orthogonalLoop=1;jettySize=auto;html=1;exitX=1;exitY=0;exitDx=0;exitDy=0;entryX=0.5;entryY=1;entryDx=0;entryDy=0;curved=1;endArrow=circle;endFill=0;strokeColor=#004C99;" edge="1" parent="1" source="8C_NeX-uaN8IGlu0EP30-8" target="hI_YVGgWy3BwtjRXccb2-4">
          <mxGeometry relative="1" as="geometry" />
        </mxCell>
        <mxCell id="8C_NeX-uaN8IGlu0EP30-17" style="edgeStyle=orthogonalEdgeStyle;orthogonalLoop=1;jettySize=auto;html=1;exitX=0.5;exitY=0;exitDx=0;exitDy=0;entryX=1;entryY=0.5;entryDx=0;entryDy=0;curved=1;endArrow=circle;endFill=0;strokeColor=#004C99;" edge="1" parent="1" source="8C_NeX-uaN8IGlu0EP30-8" target="hI_YVGgWy3BwtjRXccb2-1">
          <mxGeometry relative="1" as="geometry" />
        </mxCell>
        <mxCell id="8C_NeX-uaN8IGlu0EP30-8" value="Trot - 8" style="ellipse;whiteSpace=wrap;html=1;aspect=fixed;fillColor=#f8cecc;strokeColor=#b85450;" vertex="1" parent="1">
          <mxGeometry x="389" y="350" width="50" height="50" as="geometry" />
        </mxCell>
      </root>
    </mxGraphModel>
  </diagram>
</mxfile>
